<?xml version="1.0" standalone="no"?>
<!DOCTYPE svg PUBLIC "-//W3C//DTD SVG 20010904//EN"
 "http://www.w3.org/TR/2001/REC-SVG-20010904/DTD/svg10.dtd">
<svg version="1.0" xmlns="http://www.w3.org/2000/svg"
 width="412.000000pt" height="412.000000pt" viewBox="0 0 412.000000 412.000000"
 preserveAspectRatio="xMidYMid meet">

<g transform="translate(0.000000,412.000000) scale(0.100000,-0.100000)"
fill="#000000" stroke="none">
<path d="M1186 4032 c-15 -48 -30 -91 -32 -97 -2 -5 0 -16 5 -24 14 -23 37 2
56 60 23 67 43 79 137 79 96 0 125 -11 143 -53 8 -19 20 -39 28 -46 31 -25 26
26 -9 106 -8 17 -14 38 -14 47 0 24 -52 21 -70 -4 -12 -16 -26 -20 -72 -20
-46 0 -62 4 -75 20 -10 11 -29 20 -43 20 -23 0 -28 -9 -54 -88z"/>
<path d="M1690 4051 c0 -64 1 -69 20 -64 17 5 20 14 20 69 0 57 -2 64 -20 64
-18 0 -20 -7 -20 -69z"/>
<path d="M2100 4035 c0 -47 4 -85 9 -85 17 0 28 26 30 75 3 61 19 74 91 76
115 2 105 17 -12 18 l-118 1 0 -85z"/>
<path d="M2542 4025 c3 -82 17 -130 32 -114 2 2 6 50 8 107 3 102 3 102 -21
102 -23 0 -23 -1 -19 -95z"/>
<path d="M2860 4021 c0 -70 4 -102 13 -110 23 -18 27 -2 27 106 0 96 -1 103
-20 103 -19 0 -20 -7 -20 -99z"/>
<path d="M3100 4117 c0 -2 -16 -47 -35 -101 -19 -54 -35 -100 -35 -102 0 -2 9
-4 20 -4 14 0 24 13 37 51 12 35 27 55 45 65 34 18 174 18 207 1 14 -7 32 -34
45 -67 14 -34 29 -56 41 -58 12 -3 16 1 13 9 -3 8 -20 58 -39 112 -36 103 -55
121 -77 72 -11 -23 -16 -25 -85 -25 -68 0 -75 2 -87 25 -7 14 -22 25 -32 25
-10 0 -18 -1 -18 -3z"/>
<path d="M3622 4013 c2 -88 6 -108 18 -108 12 0 16 20 18 108 3 102 2 107 -18
107 -20 0 -21 -5 -18 -107z"/>
<path d="M3907 4013 c-20 -58 -35 -108 -33 -111 13 -12 34 11 50 55 26 71 45
83 127 83 55 0 69 3 69 15 0 11 -13 15 -54 15 -46 0 -58 4 -74 25 -11 14 -26
25 -33 25 -9 0 -29 -42 -52 -107z"/>
<path d="M1706 3971 c-3 -5 -25 -12 -48 -15 -24 -3 -48 -7 -55 -8 -18 -2 -24
-27 -11 -47 6 -10 45 -33 86 -52 147 -66 176 -84 209 -127 18 -24 33 -49 33
-55 -1 -7 -7 -1 -15 13 -7 14 -15 23 -17 20 -2 -3 -23 11 -46 31 -24 20 -82
55 -130 78 -113 55 -152 82 -152 105 0 16 -5 17 -37 11 -21 -4 -49 -9 -63 -12
-38 -7 -36 -11 14 -24 25 -6 43 -15 40 -20 -8 -13 10 -11 24 3 7 7 12 8 12 2
0 -6 8 -20 18 -32 10 -12 18 -32 17 -44 -1 -13 3 -26 9 -30 17 -12 -16 -10
-53 3 -17 6 -31 15 -31 19 0 4 -8 11 -17 15 -11 4 -7 -6 12 -26 36 -38 4 -25
-36 15 -14 14 -36 29 -49 34 -27 10 -109 -3 -125 -19 -6 -6 -6 -10 0 -8 6 1
19 -2 30 -6 121 -49 154 -55 89 -14 -21 12 -32 25 -26 27 6 2 38 -13 71 -33
32 -20 65 -35 72 -34 23 3 99 -13 105 -22 3 -5 -5 -9 -18 -9 -27 -1 -61 -24
-50 -34 6 -7 -24 -4 -100 10 -41 8 -35 -13 9 -31 51 -21 36 -28 -23 -10 -27 8
-53 15 -58 15 -14 0 65 -74 93 -87 l26 -12 -25 4 c-67 11 -100 28 -100 53 0 4
-11 19 -25 32 -30 29 -24 41 18 34 l32 -5 -25 15 c-23 14 -23 15 -5 16 12 0 1
9 -28 22 -41 18 -53 19 -86 9 -22 -6 -53 -27 -71 -47 -40 -46 -32 -57 11 -12
17 18 27 26 22 18 -6 -8 -13 -28 -17 -44 -4 -17 -19 -46 -34 -65 -15 -20 -38
-57 -52 -84 -20 -38 -22 -51 -13 -66 8 -13 9 -38 1 -95 -10 -66 -9 -78 5 -94
10 -10 17 -26 17 -35 0 -9 4 -18 9 -21 5 -4 7 3 4 14 -8 32 3 23 30 -22 13
-24 27 -65 31 -93 12 -85 24 -148 35 -190 15 -58 14 -65 -15 -65 -82 0 -115
-92 -66 -185 9 -16 17 -50 17 -75 1 -30 15 -72 40 -123 38 -78 62 -105 115
-129 16 -7 32 -23 35 -36 3 -12 10 -20 15 -17 6 4 10 -9 10 -30 0 -20 4 -34 9
-30 16 10 23 -15 9 -32 -8 -10 -8 -14 -1 -10 6 4 14 3 18 -3 3 -5 0 -10 -7
-10 -10 0 -10 -2 0 -8 16 -11 31 -322 15 -322 -6 0 -20 -16 -32 -36 -37 -61
-22 -224 29 -325 42 -81 170 -149 308 -164 51 -5 62 -4 56 7 -6 9 0 8 16 -3
31 -20 156 -24 258 -8 64 9 76 8 91 -5 38 -34 93 -14 111 39 8 26 31 50 81 87
70 53 117 114 192 250 49 89 60 175 27 208 -12 12 -25 18 -30 13 -4 -4 -3 -47
3 -95 9 -84 8 -89 -16 -130 -30 -51 -127 -158 -144 -158 -6 0 -18 -6 -25 -12
-21 -20 -56 -38 -73 -38 -8 0 -15 -4 -15 -10 0 -5 -17 -10 -39 -10 -30 0 -40
4 -44 20 -3 12 -14 20 -25 20 -30 0 -52 10 -52 25 0 12 -86 55 -109 55 -15 0
-14 17 2 24 6 3 3 4 -8 1 -11 -2 -27 0 -35 5 -12 8 -11 10 8 10 12 0 22 4 22
8 0 5 55 9 123 9 125 0 175 6 215 25 43 22 21 26 -39 7 -68 -21 -99 -24 -99
-9 0 6 -9 10 -20 10 -11 0 -20 7 -20 15 0 10 -10 15 -30 15 -16 0 -30 5 -30
10 0 6 -7 10 -15 10 -8 0 -19 9 -25 20 -6 12 -21 20 -35 20 -15 0 -25 6 -25
14 0 7 -31 43 -68 78 -73 68 -89 99 -66 122 10 11 14 44 14 130 0 109 -1 116
-20 116 -14 0 -20 7 -20 21 0 14 -5 19 -14 16 -20 -8 -24 10 -15 58 5 22 8 55
9 73 0 29 -3 32 -30 32 -20 0 -30 5 -30 15 0 29 -47 65 -85 65 -39 0 -45 9
-15 28 32 19 25 48 -12 57 -18 5 -37 9 -43 9 -5 1 -13 19 -17 41 -10 61 -9
238 2 255 9 13 10 13 11 0 1 -8 1 -23 0 -32 -1 -10 4 -18 13 -18 8 0 18 -9 21
-20 3 -11 13 -20 21 -20 8 0 17 -13 21 -30 3 -19 12 -30 22 -30 9 0 22 -9 29
-21 11 -18 22 -20 70 -18 31 2 81 -3 110 -10 53 -13 247 -11 269 2 6 4 18 4
26 1 8 -3 18 -1 22 5 3 6 -1 11 -10 11 -15 0 -15 1 -1 16 9 8 16 21 16 27 0 7
4 6 10 -3 7 -11 10 -3 10 30 0 44 -35 139 -46 127 -4 -3 -13 0 -21 8 -15 15
-28 18 -173 34 -97 10 -141 6 -217 -21 l-42 -15 -49 46 c-60 57 -72 79 -72
129 0 38 -22 97 -32 87 -2 -3 -3 14 -1 38 2 23 8 43 13 45 6 2 7 25 4 56 -6
46 -3 60 21 102 30 54 63 86 83 79 7 -3 10 -1 7 4 -3 5 0 13 6 17 8 4 7 9 -2
15 -12 8 -11 11 1 19 8 5 25 10 37 10 33 0 113 -23 113 -32 0 -4 9 -8 19 -8
11 0 23 -4 26 -10 3 -6 48 -10 101 -10 84 0 101 -3 156 -30 45 -21 66 -26 75
-19 7 6 17 8 23 4 7 -4 25 5 41 21 27 26 33 27 136 28 105 1 109 0 148 -29 22
-16 47 -37 57 -46 17 -17 64 -127 71 -169 3 -21 5 -19 7 10 4 51 5 53 18 77
16 29 23 85 9 76 -6 -4 -8 0 -4 11 5 12 -3 23 -30 38 -31 19 -33 23 -17 28 10
4 25 5 32 3 6 -3 12 0 12 6 0 6 -17 11 -40 11 -22 0 -40 5 -40 10 0 6 12 10
27 10 14 0 24 3 20 6 -3 4 4 15 16 26 19 17 20 19 3 13 -11 -3 -23 0 -27 7 -7
11 -12 11 -30 0 -11 -8 -18 -9 -15 -3 4 6 -3 20 -15 32 -16 16 -28 20 -54 15
-20 -4 -35 -14 -38 -24 -2 -9 -4 -6 -3 8 0 14 5 28 11 32 6 5 3 8 -7 8 -9 0
-19 -4 -23 -9 -3 -6 -18 -16 -34 -24 -26 -13 -28 -13 -23 5 7 29 97 68 104 46
2 -6 24 -10 48 -10 24 1 53 -4 64 -9 16 -8 14 -4 -6 15 -31 28 -131 47 -150
28 -6 -6 -17 -8 -24 -5 -8 3 -25 -2 -39 -11 -14 -9 -25 -13 -25 -9 0 5 -5 1
-10 -7 -5 -8 -10 -10 -10 -4 0 6 9 23 21 38 l21 26 -29 -12 c-32 -15 -44 -28
-36 -42 3 -5 1 -6 -5 -2 -8 4 -12 0 -12 -11 -1 -14 -3 -13 -14 6 -12 21 -12
27 0 39 16 15 18 23 7 21 -24 -4 -25 4 -3 16 l25 14 -37 1 c-21 0 -38 -5 -38
-10 0 -6 -6 -9 -12 -8 -9 2 -14 -15 -16 -54 -2 -33 -8 -58 -14 -58 -6 0 -9 25
-6 70 4 80 -11 80 -20 -1 -4 -31 -13 -54 -21 -57 -11 -4 -12 0 -6 14 16 40 18
64 3 64 -8 0 -20 -10 -26 -22 -11 -23 -11 -23 -7 2 2 14 6 41 10 61 3 24 13
40 30 49 19 10 22 16 13 22 -10 6 -8 8 4 8 9 0 29 11 44 25 27 25 21 31 -22
19 -11 -3 -38 -28 -60 -55 -21 -27 -42 -49 -47 -49 -4 0 -5 6 -1 13 6 9 4 9
-8 -1 -13 -10 -16 -9 -21 9 -6 24 -33 20 -31 -5 1 -9 -2 -16 -6 -16 -4 0 -5
-12 -2 -26 4 -20 2 -25 -8 -19 -9 5 -10 1 -5 -16 5 -19 4 -21 -4 -9 -6 8 -11
26 -12 40 -1 17 -3 20 -6 7 -2 -9 -9 -15 -14 -12 -5 3 -6 -2 -3 -12 4 -13 0
-11 -15 7 -18 21 -20 22 -15 5 4 -15 1 -13 -10 5 l-15 25 -1 -25 c-1 -28 1
-32 -37 61 -10 25 -43 73 -74 108 -47 51 -57 58 -61 43 -3 -11 -1 -28 5 -38
13 -25 79 -90 88 -87 4 1 13 -5 21 -15 12 -15 11 -16 -4 -3 -22 16 -23 3 -3
-23 10 -13 15 -15 15 -6 0 7 2 11 5 8 3 -3 3 -12 -1 -21 -4 -13 -11 -9 -36 16
l-30 32 28 -53 c15 -28 25 -55 21 -58 -3 -3 -14 15 -25 39 -30 67 -69 120 -91
124 -26 4 -75 50 -95 91 -18 34 -22 37 -30 23z m4 -42 c0 -5 -4 -8 -9 -4 -17
10 -24 -18 -8 -30 23 -17 21 -28 -2 -16 -10 6 -20 9 -22 6 -2 -2 -4 10 -4 26
0 23 4 29 23 29 12 0 22 -5 22 -11z m-95 -17 c-3 -3 -11 0 -18 7 -9 10 -8 11
6 5 10 -3 15 -9 12 -12z m282 -34 c22 -25 37 -48 30 -48 -2 0 -18 16 -36 35
-17 19 -28 35 -23 35 5 0 18 -10 29 -22z m-212 -78 c11 0 27 -5 35 -11 11 -8
3 -9 -30 -4 -44 6 -70 19 -70 37 0 5 10 2 22 -6 12 -9 32 -16 43 -16z m-396
-156 c14 -12 -19 -1 -35 12 -18 14 -18 14 6 3 14 -6 27 -13 29 -15z m26 -52
c-3 -3 -16 5 -28 17 l-22 23 28 -17 c15 -10 25 -20 22 -23z m-75 -4 c0 -6 8
-21 18 -32 17 -21 17 -21 -5 -2 -23 19 -23 19 -23 -1 0 -11 9 -32 21 -47 13
-16 15 -24 6 -21 -27 11 -58 100 -41 118 9 9 24 -1 24 -15z m-59 -41 c-10 -9
-11 -8 -5 6 3 10 9 15 12 12 3 -3 0 -11 -7 -18z m496 -43 c-3 -3 -12 -4 -19
-1 -8 3 -5 6 6 6 11 1 17 -2 13 -5z m-60 -10 c-3 -3 -12 -4 -19 -1 -8 3 -5 6
6 6 11 1 17 -2 13 -5z m348 -638 c12 -12 10 -15 -13 -19 -15 -3 -44 -10 -64
-15 -45 -12 -88 -5 -88 15 0 8 -4 11 -10 8 -5 -3 -10 -2 -10 4 0 20 166 27
185 7z m35 -46 c0 -5 -10 -10 -22 -9 -22 0 -22 1 -3 9 11 5 21 9 23 9 1 1 2
-3 2 -9z m-268 -27 c-5 -23 -7 -25 -10 -8 -2 11 -9 23 -16 27 -6 5 -3 8 10 8
18 0 20 -4 16 -27z m-497 -1 c-3 -3 -11 0 -18 7 -9 10 -8 11 6 5 10 -3 15 -9
12 -12z m815 -82 c-8 -5 -33 -9 -55 -8 l-40 1 40 7 c65 12 73 12 55 0z m100 0
c0 -5 -4 -10 -10 -10 -5 0 -10 5 -10 10 0 6 5 10 10 10 6 0 10 -4 10 -10z
m-910 -79 c-11 -54 -11 -63 5 -87 9 -15 30 -31 46 -37 32 -12 34 -34 3 -29
-54 10 -86 72 -78 149 8 77 12 89 26 75 8 -8 8 -27 -2 -71z m77 43 c-3 -3 -12
-4 -19 -1 -8 3 -5 6 6 6 11 1 17 -2 13 -5z m-120 -96 c-3 -8 -6 -5 -6 6 -1 11
2 17 5 13 3 -3 4 -12 1 -19z m227 -67 c4 -28 3 -40 -4 -36 -5 3 -10 13 -10 21
0 8 -4 14 -9 14 -17 0 -32 61 -20 77 10 11 14 9 24 -10 6 -13 15 -42 19 -66z
m-74 22 c0 -18 -17 -16 -24 3 -8 22 4 40 15 23 5 -8 9 -20 9 -26z m61 -103 c6
0 9 -6 6 -12 -2 -7 -14 -11 -27 -10 -21 3 -22 1 -17 -30 3 -18 3 -27 0 -20 -2
6 -9 10 -14 7 -5 -4 -6 0 -3 8 3 8 -6 23 -20 35 -24 18 -38 61 -16 47 6 -3 10
4 10 15 0 21 2 20 35 -9 20 -17 40 -31 46 -31z m-141 17 c0 -4 -9 -3 -20 3
-11 6 -20 15 -20 20 0 6 9 5 20 -2 11 -7 20 -16 20 -21z m528 -1026 c10 -6 9
-10 -7 -14 -21 -5 -36 5 -24 17 8 8 15 7 31 -3z"/>
<path d="M1986 3959 c17 -16 26 -19 39 -11 21 11 9 21 -33 28 l-27 5 21 -22z"/>
<path d="M1740 3966 c0 -2 7 -9 15 -16 13 -11 14 -10 9 4 -5 14 -24 23 -24 12z"/>
<path d="M2190 3960 c-8 -5 -10 -10 -5 -10 6 0 17 5 25 10 8 5 11 10 5 10 -5
0 -17 -5 -25 -10z"/>
<path d="M2230 3966 c0 -2 8 -10 18 -17 15 -13 16 -12 3 4 -13 16 -21 21 -21
13z"/>
<path d="M1925 3950 c3 -5 10 -10 16 -10 5 0 9 5 9 10 0 6 -7 10 -16 10 -8 0
-12 -4 -9 -10z"/>
<path d="M1780 3940 c0 -5 5 -10 10 -10 6 0 10 -8 10 -17 1 -17 1 -17 11 0 5
9 7 22 4 27 -8 13 -35 13 -35 0z"/>
<path d="M1905 3930 c3 -5 11 -10 16 -10 6 0 7 5 4 10 -3 6 -11 10 -16 10 -6
0 -7 -4 -4 -10z"/>
<path d="M2128 3928 c-16 -5 -28 -17 -28 -27 0 -17 3 -17 43 3 26 12 39 24 33
28 -13 9 -14 9 -48 -4z"/>
<path d="M2225 3900 c-3 -6 1 -7 9 -4 18 7 21 14 7 14 -6 0 -13 -4 -16 -10z"/>
<path d="M2322 3899 c-13 -5 -28 -7 -33 -4 -5 4 -6 -1 -3 -9 5 -14 9 -14 35 0
16 8 29 17 29 19 0 6 1 6 -28 -6z"/>
<path d="M1990 3891 c0 -5 7 -14 15 -21 12 -10 15 -10 15 3 0 8 -7 17 -15 21
-8 3 -15 2 -15 -3z"/>
<path d="M2137 3877 c-16 -13 -27 -33 -27 -47 0 -24 1 -24 16 5 8 16 23 38 31
47 23 25 11 22 -20 -5z"/>
<path d="M2220 3869 c-36 -21 -60 -46 -60 -61 0 -12 28 5 75 47 45 39 38 46
-15 14z"/>
<path d="M2356 3815 c-11 -8 -15 -15 -9 -15 6 0 16 7 23 15 16 19 11 19 -14 0z"/>
<path d="M2445 3820 c3 -5 1 -10 -4 -10 -6 0 -11 -4 -11 -9 0 -6 9 -9 19 -8
22 1 25 37 3 37 -7 0 -10 -4 -7 -10z"/>
<path d="M1265 3766 c-19 -15 -17 -16 22 -10 35 5 61 -1 142 -31 66 -25 106
-35 118 -30 14 6 9 10 -24 16 -22 4 -71 19 -107 34 -88 35 -126 40 -151 21z"/>
<path d="M2320 3760 c0 -5 5 -10 10 -10 6 0 10 5 10 10 0 6 -4 10 -10 10 -5 0
-10 -4 -10 -10z"/>
<path d="M2464 3745 c-17 -13 -15 -13 21 -4 49 14 56 19 24 19 -14 0 -34 -7
-45 -15z"/>
<path d="M2778 3483 c7 -3 16 -2 19 1 4 3 -2 6 -13 5 -11 0 -14 -3 -6 -6z"/>
<path d="M1725 3080 c3 -5 13 -10 21 -10 8 0 14 5 14 10 0 6 -9 10 -21 10 -11
0 -17 -4 -14 -10z"/>
<path d="M1735 2950 c-19 -8 -19 -9 3 -9 12 -1 22 4 22 9 0 6 -1 10 -2 9 -2 0
-12 -4 -23 -9z"/>
<path d="M2616 2912 c-2 -4 -24 -9 -48 -10 -47 -3 -106 -19 -125 -35 -18 -14
-16 -41 2 -33 43 17 46 15 10 -6 -47 -28 -60 -59 -51 -120 9 -57 29 -65 128
-47 69 12 91 28 41 30 l-28 0 25 12 c14 6 31 18 38 27 8 8 11 10 8 4 -3 -6 6
-11 22 -11 15 0 33 -2 41 -4 8 -2 17 4 19 14 8 40 -8 63 -63 92 -53 28 -54 30
-33 42 13 7 33 12 45 13 12 0 34 5 50 12 l28 11 -30 7 c-43 11 -73 11 -79 2z
m54 -133 c0 -6 -4 -7 -10 -4 -5 3 -10 11 -10 16 0 6 5 7 10 4 6 -3 10 -11 10
-16z"/>
<path d="M2460 2636 c0 -2 7 -6 15 -10 8 -3 15 -1 15 4 0 6 -7 10 -15 10 -8 0
-15 -2 -15 -4z"/>
<path d="M2065 2610 c-3 -5 -1 -10 4 -10 6 0 11 5 11 10 0 6 -2 10 -4 10 -3 0
-8 -4 -11 -10z"/>
<path d="M3884 2549 c-7 -9 -12 -95 -13 -231 -3 -252 -15 -230 124 -224 100 4
125 11 125 33 0 11 -5 13 -17 7 -10 -4 -50 -9 -89 -12 -64 -4 -74 -2 -94 18
-21 21 -22 28 -16 113 3 50 6 125 6 168 0 103 9 112 104 107 39 -2 79 -8 89
-12 12 -6 17 -4 17 7 0 22 -24 28 -130 34 -74 4 -98 3 -106 -8z"/>
<path d="M2630 2530 c0 -5 5 -10 11 -10 5 0 7 5 4 10 -3 6 -8 10 -11 10 -2 0
-4 -4 -4 -10z"/>
<path d="M2200 2450 c0 -5 -7 -10 -15 -10 -8 0 -15 -7 -15 -15 0 -9 -6 -18
-14 -21 -10 -4 -11 -15 -6 -44 10 -53 70 -115 127 -132 24 -7 43 -16 43 -20 0
-4 6 -8 13 -8 8 0 18 19 24 45 5 24 6 42 2 39 -5 -3 -9 4 -9 15 0 11 -9 25
-19 31 -25 13 -98 13 -106 0 -11 -18 -35 9 -35 39 0 46 11 71 31 71 11 0 19 5
19 10 0 6 -9 10 -20 10 -11 0 -20 -4 -20 -10z"/>
<path d="M2420 2310 c-24 -19 -24 -19 -2 -13 12 3 25 10 28 15 11 18 -1 17
-26 -2z"/>
<path d="M2328 2183 c6 -2 18 -2 25 0 6 3 1 5 -13 5 -14 0 -19 -2 -12 -5z"/>
<path d="M2175 2103 c-90 -27 -107 -35 -112 -49 -4 -11 58 -44 81 -44 7 0 21
-9 30 -19 18 -19 17 -20 -23 -19 -23 0 -47 -4 -54 -10 -7 -6 -32 -14 -55 -18
-41 -6 -59 -24 -25 -24 9 0 26 -9 38 -20 18 -16 27 -18 55 -10 37 11 78 4 98
-17 16 -15 92 -18 92 -3 0 6 14 10 30 10 27 0 30 3 30 30 0 20 7 33 23 41 34
18 48 45 25 46 -7 1 -30 4 -50 7 -23 3 -38 1 -38 -5 0 -6 -5 -7 -12 -2 -7 4
-35 15 -62 23 l-49 15 121 0 c66 0 119 -2 117 -5 -4 -7 65 -4 72 3 11 11 -9
46 -25 44 -10 0 -32 9 -49 22 -47 35 -153 37 -258 4z m85 -163 c0 -5 -4 -10
-10 -10 -5 0 -10 5 -10 10 0 6 5 10 10 10 6 0 10 -4 10 -10z"/>
<path d="M2378 1923 c7 -3 16 -2 19 1 4 3 -2 6 -13 5 -11 0 -14 -3 -6 -6z"/>
<path d="M2645 1769 c-10 -46 -86 -197 -140 -279 -27 -41 -73 -90 -114 -123
-38 -31 -78 -72 -90 -90 -34 -56 -62 -62 -281 -61 -134 0 -220 5 -275 16 -283
55 -267 50 -261 79 4 19 -1 32 -16 45 -58 52 -94 144 -107 274 -8 82 -5 83
-46 -17 -14 -33 -27 -45 -64 -62 -93 -42 -375 -207 -436 -256 -22 -17 -68 -45
-102 -61 -34 -16 -63 -34 -63 -40 0 -6 -7 -18 -16 -25 -19 -15 -48 -79 -72
-154 -19 -61 -19 -191 1 -329 l14 -99 -41 -51 c-23 -28 -57 -75 -76 -104 -47
-74 -63 -70 -106 25 -20 43 -52 110 -71 148 -20 39 -44 102 -54 140 -19 73
-25 200 -10 209 5 3 6 -14 4 -38 -11 -97 41 -262 146 -465 15 -29 30 -20 80
49 29 39 61 80 72 91 l21 21 -44 47 c-25 25 -67 75 -93 111 -27 36 -50 67 -52
69 -1 2 -26 -8 -55 -22 -29 -14 -55 -24 -57 -21 -3 3 10 34 28 70 25 49 31 68
22 77 -6 6 -11 19 -11 29 0 16 -3 17 -23 6 -12 -7 -24 -13 -27 -13 -55 -9 -80
-51 -80 -132 0 -116 52 -269 179 -533 23 -46 41 -92 41 -102 0 -12 8 -18 24
-18 26 0 40 13 51 50 19 64 90 190 135 239 28 30 50 49 50 43 0 -7 7 -12 15
-12 32 0 185 60 292 114 144 73 175 83 308 107 123 21 428 49 546 49 57 0 80
4 90 16 31 37 61 43 164 33 54 -6 103 -13 109 -17 6 -3 117 -9 246 -13 180 -5
259 -12 337 -28 57 -12 180 -28 275 -36 95 -9 184 -18 198 -21 14 -3 45 -7 70
-9 37 -3 50 -10 78 -41 33 -38 72 -115 119 -230 40 -101 60 -87 193 136 44 74
237 321 283 362 17 15 39 30 49 34 21 6 24 24 4 24 -7 0 -26 10 -41 21 l-27
22 -59 -62 c-66 -70 -185 -225 -261 -343 -54 -83 -75 -95 -103 -55 -65 92
-125 195 -125 215 0 14 9 59 19 101 34 133 51 224 57 303 l7 76 -33 17 c-17 9
-42 18 -55 19 -12 1 -42 18 -66 37 -53 41 -108 73 -116 66 -3 -3 10 -13 29
-23 18 -9 48 -30 66 -46 l33 -28 -23 -9 c-16 -6 -28 -5 -39 5 -9 8 -19 10 -25
4 -24 -24 -186 -31 -200 -9 -3 5 -17 9 -31 9 -36 0 -123 87 -123 123 0 32 42
67 79 66 41 -1 93 -23 108 -46 13 -19 12 -21 -13 -27 -15 -4 -32 -2 -37 3 -16
16 -57 13 -57 -2 0 -8 9 -22 20 -32 18 -16 20 -16 44 3 33 25 108 37 137 22
14 -8 19 -8 15 -1 -6 9 -150 81 -162 81 -3 0 -35 15 -73 34 -37 18 -91 41
-119 50 -28 9 -56 24 -63 32 -7 9 -24 21 -39 29 -22 11 -26 19 -23 47 3 24 -4
45 -26 77 l-29 43 -7 -33z m-1521 -321 c-3 -13 -12 -30 -19 -38 -7 -8 -15 -29
-18 -46 -7 -39 -48 -103 -65 -104 -7 0 -10 -5 -7 -11 6 -8 -29 -43 -44 -44 -2
0 -19 -14 -37 -32 -60 -56 -133 -51 -162 10 -12 24 -11 31 3 53 24 36 74 64
118 64 l38 0 -16 -29 c-10 -20 -24 -31 -42 -33 -36 -4 -40 -41 -5 -46 31 -5
52 15 52 48 0 27 52 110 69 110 17 0 21 -32 6 -53 -8 -12 -15 -30 -15 -41 0
-19 1 -19 20 2 11 12 20 26 20 32 0 5 6 10 14 10 14 0 31 29 21 38 -2 3 -11 0
-18 -6 -8 -7 -17 -9 -20 -5 -18 17 -3 45 38 73 25 17 49 40 55 50 14 27 23 25
14 -2z m1472 -75 c17 -23 17 -34 2 -30 -16 3 -28 18 -28 35 0 17 10 15 26 -5z
m-29 -23 c3 -11 9 -20 14 -20 5 0 9 -5 9 -11 0 -5 -4 -8 -9 -5 -4 3 -13 -6
-19 -19 -15 -33 -28 -31 -41 6 -7 21 -7 37 0 50 13 25 39 24 46 -1z m-48 -90
c0 -23 -15 7 -22 45 l-6 30 14 -30 c8 -16 14 -37 14 -45z m-20 -10 c1 -12 -1
-13 -8 -1 -13 20 -33 3 -26 -22 5 -16 4 -18 -3 -8 -8 11 -11 9 -14 -9 -1 -13
-10 -26 -18 -28 -13 -5 -13 -3 0 12 13 16 12 20 -5 33 -19 15 -19 15 3 10 21
-5 23 -3 17 26 -4 22 -3 28 3 18 14 -19 31 -5 26 22 -3 16 -1 14 10 -8 9 -16
15 -37 15 -45z m-91 -61 c2 -18 1 -21 -7 -9 -5 8 -7 18 -4 24 3 5 1 6 -5 2 -7
-4 -12 -17 -13 -29 0 -21 -1 -21 -10 2 -7 18 -6 27 3 33 20 12 33 4 36 -23z
m-76 -48 c14 -26 14 -32 2 -42 -8 -6 -14 -9 -14 -6 0 2 -7 21 -15 41 -19 46 2
51 27 7z m-56 1 c7 -4 14 -18 16 -32 2 -19 -4 -29 -25 -42 -15 -10 -29 -18
-31 -18 -1 0 -8 19 -15 41 -10 34 -10 43 1 50 16 11 39 11 54 1z m-660 -59
c10 -34 10 -44 1 -32 -19 25 -47 31 -48 11 0 -9 -3 -12 -5 -5 -6 13 24 88 32
81 3 -4 12 -28 20 -55z m36 -5 c2 -21 0 -38 -4 -38 -4 0 -8 21 -7 48 1 52 6
48 11 -10z m124 24 c1 -7 0 -8 -3 -2 -2 5 -16 10 -29 10 -18 0 -24 -6 -25 -22
-1 -18 -2 -19 -6 -5 -8 33 3 46 33 38 15 -4 29 -13 30 -19z m430 -8 c8 -41 -5
-56 -46 -52 -21 3 -25 9 -28 41 -4 45 16 51 25 7 3 -16 12 -30 19 -30 16 0 19
36 4 45 -15 9 -12 25 5 25 8 0 17 -14 21 -36z m-201 -41 c-4 -11 -9 -13 -16
-6 -6 6 -6 19 2 39 12 28 13 28 17 6 2 -13 1 -31 -3 -39z m35 47 c0 -5 -2 -10
-4 -10 -3 0 -8 5 -11 10 -3 6 -1 10 4 10 6 0 11 -4 11 -10z m67 -23 l10 -34
-43 1 c-24 1 -44 3 -44 4 0 12 44 62 54 62 7 0 17 -15 23 -33z m-240 -9 c-3
-7 -5 -2 -5 12 0 14 2 19 5 13 2 -7 2 -19 0 -25z m86 2 c3 -11 2 -18 -3 -15
-4 3 -10 14 -13 25 -3 11 -2 18 3 15 4 -3 10 -14 13 -25z m-30 -157 c-7 -2
-19 -2 -25 0 -7 3 -2 5 12 5 14 0 19 -2 13 -5z"/>
<path d="M2530 1319 c0 -38 24 -35 28 4 2 19 -1 27 -12 27 -11 0 -16 -10 -16
-31z"/>
<path d="M2240 1110 c0 -5 7 -10 15 -10 8 0 15 5 15 10 0 6 -7 10 -15 10 -8 0
-15 -4 -15 -10z"/>
<path d="M1587 1105 c-4 -8 -2 -17 3 -20 6 -4 10 3 10 14 0 25 -6 27 -13 6z"/>
<path d="M3133 1369 c-12 -4 -31 -17 -42 -28 -20 -20 -20 -20 10 -19 16 1 32
5 35 10 9 13 24 9 24 -7 0 -8 7 -15 16 -15 14 0 15 2 3 17 -12 15 -12 16 5 10
16 -6 17 -5 6 8 -7 8 -16 13 -20 10 -5 -3 -10 1 -12 9 -2 10 -9 11 -25 5z"/>
<path d="M3495 1187 c-6 -45 -64 -312 -81 -373 -4 -14 5 -33 32 -65 20 -24 50
-67 66 -96 42 -75 63 -78 101 -15 16 29 16 30 -1 25 -37 -9 -62 27 -79 118
-16 82 -15 88 2 135 19 53 22 125 5 169 -6 15 -9 30 -7 32 3 2 23 -4 46 -13
l42 -17 29 34 c32 39 37 33 -75 84 l-73 34 -7 -52z"/>
<path d="M580 1160 c-14 -4 -63 -27 -109 -51 -70 -37 -79 -45 -60 -49 16 -4
28 -17 35 -38 7 -21 23 -39 47 -52 20 -11 39 -20 41 -20 2 0 6 18 10 41 4 22
20 70 36 106 17 37 29 67 28 68 -2 1 -14 -1 -28 -5z"/>
<path d="M3730 1115 c8 -10 10 -29 6 -54 -6 -38 -5 -40 45 -76 l51 -37 39 38
c47 46 44 51 -64 105 -88 43 -95 46 -77 24z"/>
<path d="M3670 1070 c-18 -26 -24 -28 -47 -19 -14 5 -27 8 -29 6 -2 -2 1 -20
7 -41 9 -31 7 -44 -10 -80 -12 -23 -21 -60 -21 -82 1 -39 1 -39 15 -14 8 14
14 35 15 47 0 12 5 25 10 28 14 9 13 -1 -10 -73 -24 -75 -25 -115 -6 -131 12
-10 18 -8 30 11 16 25 46 133 46 166 0 15 14 25 56 42 l55 23 -46 30 c-45 29
-47 32 -43 74 2 24 2 43 1 43 -1 0 -11 -13 -23 -30z m-34 -266 c-10 -37 -28
-18 -20 19 3 18 9 37 13 42 9 14 14 -32 7 -61z"/>
<path d="M321 1016 c-10 -11 -9 -21 4 -46 16 -30 15 -32 -14 -81 -17 -27 -28
-49 -25 -49 3 0 24 9 47 20 l42 21 18 -25 c10 -13 26 -35 37 -48 l20 -23 -15
37 c-22 55 -19 81 13 100 l27 17 -32 13 c-25 9 -33 19 -35 43 -2 16 -7 28 -13
25 -5 -3 -9 -13 -8 -23 2 -10 -2 -15 -7 -12 -6 3 -10 15 -10 26 0 23 -32 26
-49 5z m39 -27 c0 -5 -7 -9 -15 -9 -15 0 -20 12 -9 23 8 8 24 -1 24 -14z"/>
<path d="M493 918 c-18 -11 -33 -26 -33 -34 0 -21 59 -196 75 -224 14 -24 15
-23 9 25 -3 28 -7 96 -7 152 -1 57 -4 103 -7 102 -3 0 -20 -10 -37 -21z"/>
<path d="M3759 899 c-41 -18 -47 -25 -53 -57 -3 -20 -9 -48 -12 -62 -5 -19 1
-15 28 20 67 88 90 120 87 120 -2 -1 -25 -10 -50 -21z"/>
<path d="M1895 777 c-16 -17 -22 -25 -12 -17 27 20 32 4 7 -22 -12 -13 -31
-36 -43 -53 l-21 -30 37 33 c21 17 42 32 48 32 6 0 9 12 8 28 -2 15 0 33 5 40
15 25 1 19 -29 -11z"/>
<path d="M1819 693 c-13 -16 -12 -17 4 -4 16 13 21 21 13 21 -2 0 -10 -8 -17
-17z"/>
<path d="M130 654 c0 -14 3 -14 15 -4 8 7 15 14 15 16 0 2 -7 4 -15 4 -8 0
-15 -7 -15 -16z"/>
<path d="M1140 615 c-8 -2 -32 -6 -53 -10 -41 -7 -77 -35 -77 -61 0 -13 14
-14 109 -8 l108 7 40 -37 c43 -38 68 -44 97 -23 16 12 13 17 -38 65 -71 67
-113 82 -186 67z"/>
<path d="M2382 573 c-92 -45 -112 -154 -45 -234 89 -106 254 -58 279 81 7 39
30 70 51 70 11 0 16 32 13 88 -1 10 -51 2 -82 -14 -33 -17 -67 -59 -74 -93 -3
-14 -10 -38 -16 -54 -18 -48 -90 -48 -109 0 -17 46 30 90 78 72 18 -7 25 -2
45 29 12 20 24 40 26 43 5 11 -58 29 -97 29 -20 0 -51 -8 -69 -17z"/>
<path d="M122 558 c-14 -31 -22 -102 -11 -119 10 -16 14 -6 24 56 3 22 9 50
12 63 3 12 1 22 -4 22 -5 0 -15 -10 -21 -22z"/>
<path d="M2708 538 c-2 -24 -2 -44 1 -46 37 -16 73 -47 81 -70 6 -15 15 -35
20 -44 7 -13 7 -18 -1 -18 -5 0 -8 -3 -6 -7 3 -5 -5 -9 -16 -9 -12 -1 -29 -4
-37 -5 -10 -3 -15 3 -14 19 0 15 -5 22 -17 22 -25 0 -32 -17 -12 -29 17 -9 17
-10 0 -28 -9 -11 -17 -28 -17 -38 0 -15 6 -17 37 -12 72 12 123 69 131 147 4
43 7 50 24 48 14 -2 23 6 33 29 l14 32 -77 25 c-43 14 -91 26 -108 26 -30 0
-32 -2 -36 -42z"/>
<path d="M3930 550 c0 -5 5 -10 11 -10 5 0 7 5 4 10 -3 6 -8 10 -11 10 -2 0
-4 -4 -4 -10z"/>
<path d="M1112 508 c2 -18 10 -23 33 -23 23 0 31 5 33 23 3 19 -1 22 -33 22
-32 0 -36 -3 -33 -22z"/>
<path d="M204 495 c2 -16 4 -36 5 -43 0 -7 5 -11 10 -8 4 3 6 -6 3 -21 -4 -20
-2 -25 10 -21 11 5 14 0 10 -18 -2 -13 0 -24 6 -24 14 0 33 -58 21 -66 -5 -3
0 -13 12 -23 16 -13 21 -30 23 -74 2 -45 8 -61 26 -77 27 -24 44 -10 29 24 -5
12 -35 89 -68 173 -33 83 -66 164 -75 180 l-15 28 3 -30z"/>
<path d="M952 494 c-16 -11 -22 -25 -22 -55 0 -38 13 -52 23 -25 3 7 22 16 42
18 42 5 59 -6 146 -89 l56 -54 16 32 c10 21 12 39 7 49 -9 16 -96 93 -139 122
-32 22 -99 23 -129 2z"/>
<path d="M2600 330 l-22 -30 36 -15 c19 -8 40 -15 46 -15 13 0 13 37 0 45 -5
3 -10 11 -10 17 0 7 5 6 14 -1 11 -9 16 -9 21 0 4 6 1 15 -6 20 -27 17 -58 9
-79 -21z"/>
<path d="M96 334 c-9 -24 -7 -28 9 -14 17 14 20 30 6 30 -5 0 -12 -7 -15 -16z"/>
<path d="M3970 346 c-3 -2 -4 -36 -2 -75 3 -64 6 -71 24 -71 18 0 20 4 13 46
l-7 47 61 -7 c34 -4 61 -5 61 -2 0 3 -27 10 -60 17 -33 6 -60 16 -60 20 0 11
34 11 83 0 20 -5 37 -5 37 -1 0 4 -21 11 -47 14 -27 4 -59 9 -73 12 -14 2 -28
3 -30 0z"/>
<path d="M75 246 c-8 -20 -15 -57 -14 -83 1 -45 1 -46 9 -15 4 18 11 36 14 40
10 10 23 -16 21 -41 -2 -15 -1 -16 2 -4 4 18 5 18 19 0 10 -12 9 -7 -3 20 -9
20 -20 37 -25 37 -4 0 -8 14 -8 31 0 29 2 31 26 25 15 -4 40 -10 58 -13 30 -6
31 -6 14 14 -11 12 -33 20 -58 21 -38 3 -42 0 -55 -32z"/>
<path d="M1298 262 c-15 -3 -18 -14 -18 -58 0 -30 0 -57 0 -61 -1 -5 8 -9 20
-11 17 -3 20 2 20 30 l1 33 17 -27 c10 -17 25 -28 39 -28 22 0 23 4 23 65 0
58 -2 65 -20 65 -15 0 -20 -7 -20 -27 l-1 -28 -22 26 c-12 14 -30 24 -39 21z"/>
<path d="M4021 254 c0 -11 3 -14 6 -6 3 7 2 16 -1 19 -3 4 -6 -2 -5 -13z"/>
<path d="M4050 260 c0 -5 5 -10 10 -10 6 0 10 -5 10 -11 0 -5 -4 -7 -10 -4 -6
4 -10 -6 -10 -22 l0 -27 16 22 c9 13 13 31 9 42 -7 21 -25 28 -25 10z"/>
<path d="M4094 238 c3 -13 6 -29 6 -35 0 -7 4 -13 9 -13 12 0 9 33 -4 43 -6 4
-4 11 5 17 13 8 12 10 -4 10 -14 0 -17 -5 -12 -22z"/>
<path d="M1214 240 c-17 -7 -24 -21 -29 -60 -4 -28 -5 -54 -1 -57 3 -3 21 -2
41 1 39 8 49 36 13 37 l-23 0 23 11 c24 12 31 41 7 32 -8 -4 -15 -1 -15 5 0 6
7 11 15 11 8 0 15 7 15 15 0 17 -14 18 -46 5z"/>
<path d="M2392 190 c0 -19 2 -27 5 -17 2 9 2 25 0 35 -3 9 -5 1 -5 -18z"/>
<path d="M1111 173 c-6 -21 -11 -48 -11 -61 0 -21 2 -21 33 -9 34 14 50 47 23
47 -11 0 -16 9 -16 30 0 42 -17 37 -29 -7z"/>
<path d="M2530 199 c0 -5 5 -7 10 -4 6 3 10 8 10 11 0 2 -4 4 -10 4 -5 0 -10
-5 -10 -11z"/>
<path d="M2572 198 c9 -7 18 -22 21 -33 4 -18 5 -18 6 3 0 12 6 22 11 22 6 0
10 5 10 10 0 6 -14 10 -32 10 -27 0 -30 -2 -16 -12z"/>
<path d="M2632 185 c-16 -35 -16 -35 18 -35 17 0 30 2 30 5 0 11 -24 55 -30
55 -4 0 -12 -11 -18 -25z"/>
<path d="M2690 180 c0 -34 22 -49 45 -30 17 14 20 50 5 50 -5 0 -10 -9 -10
-20 0 -11 -4 -20 -10 -20 -5 0 -10 9 -10 19 0 11 -4 23 -10 26 -6 4 -10 -7
-10 -25z"/>
<path d="M2760 171 c0 -25 4 -29 25 -27 25 1 42 27 30 46 -3 5 -17 10 -31 10
-20 0 -24 -5 -24 -29z m40 -1 c0 -5 -4 -10 -10 -10 -5 0 -10 5 -10 10 0 6 5
10 10 10 6 0 10 -4 10 -10z"/>
<path d="M2830 171 c0 -17 5 -33 10 -36 6 -4 10 8 10 29 0 20 -4 36 -10 36 -5
0 -10 -13 -10 -29z"/>
<path d="M1028 183 c-13 -3 -16 -16 -15 -69 1 -35 4 -63 7 -61 3 1 17 9 32 16
15 8 28 25 31 40 3 14 9 38 13 54 6 25 4 27 -22 26 -16 -1 -36 -3 -46 -6z"/>
<path d="M890 150 c-40 -40 -12 -120 43 -120 41 0 67 27 67 69 0 65 -65 96
-110 51z m68 -44 c5 -24 -10 -38 -31 -30 -20 7 -23 40 -4 47 19 8 32 2 35 -17z"/>
<path d="M561 114 c0 -11 3 -14 6 -6 3 7 2 16 -1 19 -3 4 -6 -2 -5 -13z"/>
<path d="M3410 89 c0 -8 -3 -31 -6 -52 -6 -36 -6 -37 24 -37 l30 0 -17 45
c-18 48 -31 66 -31 44z"/>
<path d="M4020 51 c0 -11 -3 -26 -6 -35 -4 -11 -1 -16 10 -16 12 0 16 10 16
35 0 19 -4 35 -10 35 -5 0 -10 -9 -10 -19z"/>
<path d="M56 53 c-4 -4 5 -53 10 -53 5 0 54 50 54 56 0 5 -59 2 -64 -3z"/>
<path d="M321 44 c0 -11 3 -14 6 -6 3 7 2 16 -1 19 -3 4 -6 -2 -5 -13z"/>
<path d="M4080 30 c0 -32 23 -42 34 -14 11 29 6 44 -14 44 -16 0 -20 -7 -20
-30z"/>
<path d="M2212 20 c15 -24 34 -26 54 -6 21 22 17 26 -26 26 -38 0 -39 -1 -28
-20z"/>
<path d="M2314 15 c19 -19 30 -19 46 0 11 13 7 15 -24 15 -33 0 -36 -2 -22
-15z"/>
<path d="M2396 18 c-16 -13 -10 -14 48 -14 71 0 77 11 11 21 -27 4 -46 2 -59
-7z"/>
<path d="M2530 10 c0 -5 16 -10 35 -10 19 0 35 5 35 10 0 6 -16 10 -35 10 -19
0 -35 -4 -35 -10z"/>
<path d="M2630 8 c0 -4 35 -7 78 -7 85 1 80 6 -15 12 -35 2 -63 0 -63 -5z"/>
</g>
</svg>
